<?xml version="1.0" encoding="UTF-8"?>
<svg id="Capa_1" data-name="Capa 1" xmlns="http://www.w3.org/2000/svg" xmlns:xlink="http://www.w3.org/1999/xlink" viewBox="0 0 32 32">
  <defs>
    <style>
      .cls-1 {
        fill: #fff;
      }

      .cls-2 {
        fill: #895887;
      }

      .cls-3 {
        fill: url(#Degradado_sin_nombre_15);
      }
    </style>
    <linearGradient id="Degradado_sin_nombre_15" data-name="Degradado sin nombre 15" x1="0" y1="16" x2="32" y2="16" gradientUnits="userSpaceOnUse">
      <stop offset="0" stop-color="#824e80"/>
      <stop offset="1" stop-color="#824e80" stop-opacity="0"/>
    </linearGradient>
  </defs>
  <circle class="cls-3" cx="16" cy="16" r="16"/>
  <circle class="cls-1" cx="16" cy="16" r="12.5"/>
  <path class="cls-2" d="M23.2,12.89l-.28-.66c-.28-.65-1.03-.96-1.69-.69-.03.01-.04.03-.07.05v-.02s-.99.41-.99.41v-1.34c0-.96-.84-1.74-1.87-1.74h-7.73c-1.03,0-1.87.78-1.87,1.74v10.73c0,.96.84,1.74,1.87,1.74h8.25l1.35-1.61v-5.95l-.73.31v5.37l-.96,1.15h-7.91c-.63,0-1.14-.45-1.14-1.01v-10.73c0-.56.51-1.01,1.14-1.01h7.73c.63,0,1.14.45,1.14,1.01v1.65l.31-.13-6.03,2.53.02.04c-.07.03-.15.06-.21.11l-1.88,1.7c-.25.23-.33.58-.2.89.13.3.41.49.73.49.02,0,.03,0,.05,0l2.52-.15c.11,0,.21-.05.31-.09v.03s7.45-3.12,7.45-3.12c0,0,0,0,0,0,.32-.13.56-.38.69-.7.13-.32.13-.67,0-.99ZM14.7,17.03l-2.52.15-.04-.1,1.88-1.7-.25-.27.2.17.03.08.04-.02.07.06.65,1.55.34-.14-.39.22ZM15.44,16.74s0-.05-.01-.08l-.65-1.55s-.03-.04-.05-.06l5.72-2.4c-.01.19,0,.38.09.57l.28.66c.08.19.2.33.35.46l-5.73,2.4ZM22.23,13.9c-.28.12-.61-.01-.73-.3l-.28-.66c-.12-.28.02-.61.3-.73.07-.03.14-.04.21-.04.22,0,.43.13.52.34l.28.66c.12.28-.02.61-.3.73Z"/>
</svg>