<?xml version="1.0" encoding="UTF-8"?>
<svg id="Capa_1" data-name="Capa 1" xmlns="http://www.w3.org/2000/svg" xmlns:xlink="http://www.w3.org/1999/xlink" viewBox="0 0 32 32">
  <defs>
    <style>
      .cls-1 {
        fill: #fff;
      }

      .cls-2 {
        fill: #4cc9bd;
      }

      .cls-3 {
        fill: url(#Degradado_sin_nombre_9);
      }
    </style>
    <linearGradient id="Degradado_sin_nombre_9" data-name="Degradado sin nombre 9" x1="0" y1="15.95" x2="31.87" y2="15.95" gradientUnits="userSpaceOnUse">
      <stop offset="0" stop-color="#4cc9bd"/>
      <stop offset="1" stop-color="#4ca5ca" stop-opacity="0"/>
    </linearGradient>
  </defs>
  <circle class="cls-3" cx="15.93" cy="15.95" r="15.93"/>
  <circle class="cls-1" cx="15.93" cy="15.95" r="12.5"/>
  <path class="cls-2" d="M6.6,16.6c.16-.43.32-.89.75-1.12.31-.17.67-.32,1.01-.35.66-.05,1.34-.02,2-.01.45,0,.82.17,1.16.5-.11.08-.21.15-.31.22-.94.65-1.55,1.53-1.77,2.66-.04.21-.12.28-.33.28-.45-.01-.9-.02-1.35,0-.56.03-.97-.17-1.17-.71v-1.46ZM24.94,16.67c-.02-.08-.05-.16-.07-.24-.23-.77-.89-1.29-1.69-1.31-.67-.01-1.34,0-2,0-.44,0-.82.17-1.14.49.03.04.05.07.08.09,1.07.67,1.75,1.62,2,2.87.02.08.18.18.28.19.46.02.92,0,1.38.01.56.03.96-.18,1.17-.71v-1.39ZM19.9,21.51c.71,0,1.24-.44,1.34-1.14.05-.35.05-.7.03-1.05-.06-1.35-.67-2.38-1.9-2.96-.66-.32-1.35-.45-2.1-.14-1.08.44-2.19.36-3.27-.1-.12-.05-.25-.09-.38-.09-1.46-.03-2.85.98-3.2,2.4-.13.53-.13,1.11-.14,1.66,0,.88.57,1.43,1.44,1.43,1.34,0,2.68,0,4.02,0,1.39,0,2.77,0,4.16,0ZM18.96,11.92c0-1.8-1.38-3.21-3.15-3.23-1.8-.01-3.23,1.38-3.23,3.15,0,1.83,1.38,3.24,3.17,3.25,1.79,0,3.21-1.39,3.21-3.17ZM9.34,14.19c.99,0,1.85-.86,1.84-1.84-.02-1.03-.82-1.82-1.84-1.82-1.01,0-1.81.8-1.8,1.81,0,1.04.8,1.85,1.81,1.85ZM22.2,10.53c-1.01,0-1.83.79-1.84,1.78-.01,1.03.82,1.88,1.83,1.88.99,0,1.81-.82,1.81-1.81,0-1.04-.79-1.85-1.8-1.85Z"/>
</svg>