<?xml version="1.0" encoding="UTF-8"?>
<svg id="Capa_1" data-name="Capa 1" xmlns="http://www.w3.org/2000/svg" xmlns:xlink="http://www.w3.org/1999/xlink" viewBox="0 0 32 32">
  <defs>
    <style>
      .cls-1 {
        fill: #fff;
      }

      .cls-2 {
        fill: #88b2e3;
      }

      .cls-3 {
        fill: url(#Degradado_sin_nombre_12);
      }
    </style>
    <linearGradient id="Degradado_sin_nombre_12" data-name="Degradado sin nombre 12" x1=".06" y1="16" x2="32.06" y2="16" gradientUnits="userSpaceOnUse">
      <stop offset="0" stop-color="#81ade1"/>
      <stop offset="1" stop-color="#81ade1" stop-opacity="0"/>
    </linearGradient>
  </defs>
  <circle class="cls-3" cx="16.06" cy="16" r="16"/>
  <circle class="cls-1" cx="16.06" cy="16" r="12.5"/>
  <path class="cls-2" d="M10.84,13.66h6.01c.94,0,1.7-.76,1.7-1.7s-.76-1.7-1.7-1.7h-6.01c-.94,0-1.7.76-1.7,1.7s.76,1.7,1.7,1.7ZM10.84,11.19h6.01c.42,0,.77.34.77.77s-.34.77-.77.77h-6.01c-.42,0-.77-.34-.77-.77s.34-.77.77-.77ZM10.84,17.76h6.01c.94,0,1.7-.76,1.7-1.7s-.76-1.7-1.7-1.7h-6.01c-.94,0-1.7.76-1.7,1.7s.76,1.7,1.7,1.7ZM10.84,15.29h6.01c.42,0,.77.34.77.77s-.34.77-.77.77h-6.01c-.42,0-.77-.34-.77-.77s.34-.77.77-.77ZM12.49,21.9c0,.82-.67,1.49-1.5,1.49s-1.49-.67-1.49-1.49.67-1.49,1.49-1.49,1.5.67,1.5,1.49ZM19.86,21.9c0,.82-.67,1.49-1.49,1.49s-1.49-.67-1.49-1.49.67-1.49,1.49-1.49,1.49.67,1.49,1.49ZM23.19,10.13c-.22.32-.69.41-.78.42h-1.04v9.75h-12.56l-.07-.26c-.26-.94.95-1.73,1.09-1.82l.09-.05,9.12-.03v-9.5h.34c.26-.02,2.52-.09,3.08,0,.64.11.74.41.81.79l.03.16c.04.18,0,.36-.1.52Z"/>
</svg>