<?xml version="1.0" encoding="UTF-8"?>
<svg id="Capa_1" data-name="Capa 1" xmlns="http://www.w3.org/2000/svg" xmlns:xlink="http://www.w3.org/1999/xlink" viewBox="0 0 32 32">
  <defs>
    <style>
      .cls-1 {
        fill: #5cadcf;
      }

      .cls-2 {
        fill: #fff;
      }

      .cls-3 {
        fill: url(#Degradado_sin_nombre_8);
      }
    </style>
    <linearGradient id="Degradado_sin_nombre_8" data-name="Degradado sin nombre 8" x1="0" y1="16" x2="32" y2="16" gradientUnits="userSpaceOnUse">
      <stop offset="0" stop-color="#4ca5ca"/>
      <stop offset="1" stop-color="#4ca5ca" stop-opacity="0"/>
    </linearGradient>
  </defs>
  <circle class="cls-3" cx="16" cy="16" r="16"/>
  <circle class="cls-2" cx="16" cy="16" r="12.5"/>
  <path class="cls-1" d="M24.73,17.08v-2.26l-2.37-.96-.29-.71.96-2.54-1.66-1.53-2.33.89-.86-.35-1.15-2.26h-2.23l-.86,2.26-.99.38-2.36-.92-1.72,1.62,1.05,2.44-.35.71-2.33,1.08v2.23l2.48.86.45,1.05-1.15,2.13,1.5,1.62,2.39-.91.99.33,1.02,2.36h2.33l.89-2.39.89-.3,2.39.91,1.66-1.59-.99-2.48.25-.67,2.37-1.02ZM16,19.04c-1.72,0-3.11-1.39-3.11-3.11s1.39-3.11,3.11-3.11,3.11,1.39,3.11,3.11-1.39,3.11-3.11,3.11Z"/>
</svg>