<?xml version="1.0" encoding="UTF-8"?>
<svg id="Capa_1" data-name="Capa 1" xmlns="http://www.w3.org/2000/svg" xmlns:xlink="http://www.w3.org/1999/xlink" viewBox="0 0 32 32">
  <defs>
    <style>
      .cls-1 {
        fill: #fff;
      }

      .cls-2 {
        fill: #3087c7;
      }

      .cls-3 {
        fill: url(#Degradado_sin_nombre_14);
      }
    </style>
    <linearGradient id="Degradado_sin_nombre_14" data-name="Degradado sin nombre 14" x1="0" y1="15.93" x2="31.89" y2="15.93" gradientUnits="userSpaceOnUse">
      <stop offset="0" stop-color="#2581c4"/>
      <stop offset="1" stop-color="#2581c4" stop-opacity="0"/>
    </linearGradient>
  </defs>
  <circle class="cls-3" cx="15.95" cy="15.93" r="15.94"/>
  <circle class="cls-1" cx="15.95" cy="15.93" r="12.65"/>
  <path class="cls-2" d="M23.8,11.11l-2.53-2.54c-.75-.75-1.97-.75-2.72,0l-.18.18c-.57.57-.7,1.42-.4,2.12-1.38.5-2.71,1.22-3.7,2.33-.54.64-.97,1.34-1.32,2.09l-.02-.02c-1.15,1.05-2.08,1.31-2.44,1.38-.35-.46-.9-.77-1.53-.77h-.25c-1.06,0-1.92.86-1.92,1.92v3.58c0,1.06.86,1.92,1.92,1.92h.25c.6,0,1.14-.29,1.49-.72.16.08.42.17.88.25.15.45.57.78,1.08.78h.15c.25,0,.46-.09.65-.23.11.41.48.72.92.72h.12c.37,0,.67-.21.84-.51.12.4.48.71.92.71h.12c.5,0,.9-.38.95-.87.18.18.42.3.7.3h.27c.45,0,.82-.32.93-.74.02,0,.05,0,.11,0,.22,0,.66-.04.94-.35.13-.15.28-.41.2-.84,0-.13-.02-.47-.31-.74.34.03.67.03,1.01-.04.69-.25.91-1.22.4-1.74.55-.22.87-.94.56-1.5-.13-.25-.36-.44-.62-.54.18-.23.31-.5.28-.84-.02-.16-.09-.3-.18-.43l.06.03.52-1.49c.11.02.21.03.32.03.49,0,.99-.19,1.36-.56l.18-.18c.75-.75.75-1.97,0-2.72ZM10.05,21.4c0,.6-.49,1.09-1.09,1.09h-.25c-.6,0-1.09-.49-1.09-1.09v-3.58c0-.6.49-1.09,1.09-1.09h.25c.6,0,1.09.49,1.09,1.09v3.58ZM10.72,22.35l-.08-.04c.03-.05.06-.1.08-.15.02.05.03.11,0,.19ZM12.55,23.08h-.15c-.33,0-.6-.27-.6-.6v-1.59c0-.33.27-.6.6-.6h.15c.33,0,.6.27.6.6v1.59c0,.33-.27.6-.6.6ZM14.66,23.16c0,.23-.19.42-.42.42h-.12c-.23,0-.42-.19-.42-.42v-1.84c0-.23.19-.42.42-.42h.12c.23,0,.42.19.42.42v1.84ZM16.54,23.36c0,.23-.19.42-.42.42h-.12c-.23,0-.42-.19-.42-.42v-1.74c0-.23.19-.42.42-.42h.12c.23,0,.42.19.42.42v1.74ZM18.46,22.78c0,.23-.19.42-.42.42h-.27c-.23,0-.42-.19-.42-.42v-1.17c0-.23.19-.42.42-.42h.27c.23,0,.42.19.42.42v1.17ZM19.61,22.3c-.14.16-.47.17-.59.17v-.85c0-.09-.03-.17-.05-.26.24,0,.44.02.56.12.16.13.14.34.14.35v.04s0,.04,0,.04c.05.27-.03.37-.06.4ZM20.97,17.21c-.9.03-1.74.09-2.63.26.85.16,1.74.22,2.59.26.2.02.38.15.47.33.21.62-.17.83-.69.92-.62-.13-1.33.15-1.96.2.54.11,1.08.17,1.63.21.72-.01.93.89.34,1.18-.59.14-1.38.13-2.06.26-.02,0-.04,0-.06,0-.16-.11-.34-.19-.55-.19h-.27c-.36,0-.66.2-.83.49-.17-.29-.47-.49-.83-.49h-.12c-.36,0-.65.2-.82.49-.09-.44-.47-.78-.94-.78h-.12c-.19,0-.35.07-.5.16-.16-.44-.58-.76-1.07-.76h-.15c-.63,0-1.15.52-1.15,1.15v1.38c-.3-.06-.45-.12-.52-.15.09-.22.14-.47.14-.73v-3.58c0-.23-.05-.45-.12-.65.38-.09,1-.32,1.74-.85-.12.32-.24.64-.34.97.07.48.25.96.73,1.17.49.18,1.01-.04,1.36-.34l1.63-2.28c1.58.01,3.17.02,4.75-.01.29.12.57.35.62.64.04.24-.07.51-.24.75-.02,0-.04,0-.05,0ZM21.02,15.65c-.11-.07-.22-.13-.34-.17-.91-.04-1.82-.06-2.72-.08.4-.21.66-.69.33-1.09-.36.47-.59.57-.83,1.07-.61-.02-1.22-.04-1.83-.06l-.08.11-1.7,2.32c-.27.18-.57.29-.76.21-.19-.06-.35-.37-.41-.65.14-.55.34-1.08.56-1.59.02-.02.03-.03.05-.04l-.02-.02c.93-2.1,2.5-3.83,4.7-4.78.09.21.22.41.4.59l2.53,2.54c.27.27.59.43.94.51l-.82,1.13ZM23.21,13.24l-.18.18c-.43.43-1.12.43-1.54,0l-2.53-2.54c-.43-.43-.43-1.12,0-1.54l.18-.18c.21-.21.49-.32.77-.32s.56.11.77.32l2.53,2.54c.43.43.43,1.12,0,1.54Z"/>
</svg>