<?xml version="1.0" encoding="UTF-8"?>
<svg id="Capa_1" data-name="Capa 1" xmlns="http://www.w3.org/2000/svg" viewBox="0 0 404.92 276.36">
  <defs>
    <style>
      .cls-1 {
        fill: #3ebee7;
      }

      .cls-2 {
        fill: #2f2e41;
      }

      .cls-3 {
        fill: #fff;
      }

      .cls-4 {
        fill: #5fa1d3;
      }

      .cls-5 {
        fill: #bbe1ee;
      }

      .cls-6 {
        fill: #d2dcdf;
      }

      .cls-7 {
        fill: #3f3d56;
      }

      .cls-8 {
        fill: #8e7bb6;
      }

      .cls-9 {
        fill: #ceb8ce;
      }

      .cls-10 {
        fill: #096784;
      }

      .cls-11 {
        fill: #a0616a;
      }

      .cls-12 {
        fill: #e4e4e4;
      }

      .cls-13 {
        fill: #57b5dc;
      }

      .cls-14 {
        fill: #f9c31b;
      }

      .cls-15 {
        fill: #e1e2e2;
      }
    </style>
  </defs>
  <ellipse class="cls-15" cx="215.83" cy="269.93" rx="140.07" ry="6.43"/>
  <path class="cls-5" d="M277.52,69.96c-2.43-4.1-6.69-5.54-11.2-5.56-1.92-1.39-4.51-1.86-7.59-.69-41.16,15.74-81.74,32.92-121.56,51.65-19.55,9.2-38.91,18.76-58.08,28.67-18.54,9.59-38.6,18.59-55.5,30.82-12.85,9.3-24.71,22.97-21.19,39.72,3.31,15.79,19.07,25.36,34.67,26.7,20.23,1.74,38.95-10.66,55.45-20.34,18.1-10.62,35.93-21.69,53.46-33.19,35.72-23.44,70.22-48.67,103.34-75.49,10.24-8.3,38.16-25.54,28.2-42.3Z"/>
  <path class="cls-6" d="M393.61,98.8c-5.57-5.6-13.15-9.05-20.99-10.06-.95-.77-2.16-1.41-3.64-1.82-39.86-11.2-77.98,13.04-107.35,36-15.31,11.97-29.27,25.39-41.97,39.86-11.85,13.51-24.9,29.77-16.55,48.2,17.73,39.16,71.35,20.21,101.58,10.15,37.27-12.41,75.77-33.48,93.87-68.53,8.78-17,9.65-39.12-4.94-53.79Z"/>
  <rect class="cls-3" x="116.85" y="40.55" width="178.24" height="199.49" rx="11.9" ry="11.9"/>
  <path class="cls-14" d="M19.48,141v5.06c-.72.62-1.53,1.32-2.78,2.4-1.36-.24-3.22-.57-5.4-.96-.49-1.98-.97-3.93-1.5-6.1,1.72-1.24,3.26-2.34,4.97-3.58,1.63,1.09,3.2,2.15,4.71,3.17Z"/>
  <path class="cls-8" d="M91.21,199.89c.69,2.71,2.58,4.78,3.87,7.16.45.84.66,1.8,1.11,3.08h-11.5c-.45-3.31,2.34-5.15,3.54-7.7.42-.9,1.07-1.69,1.61-2.54h1.36Z"/>
  <path class="cls-4" d="M24.76,217.29h-4.87c-.39-1.09-.76-2.15-1.21-3.44,2.03-.56,3.69-1.03,5.79-1.61.06-1.03.15-2.49.25-4.1h3.68c.36,1.28.79,2.79,1.25,4.41h2.84c.71.82,1.49,1.73,2.46,2.87-.29.42-.7,1.01-1.18,1.72h-4.34c-.1,1.6-.19,3.07-.27,4.44-1.4,1.62-2.78,1.97-4.39.04v-4.33Z"/>
  <rect class="cls-10" x="182.6" y="80.1" width="81.12" height="6.18"/>
  <rect class="cls-10" x="152.09" y="80.49" width="20.28" height="6.18"/>
  <rect class="cls-10" x="182.6" y="99.42" width="81.12" height="6.18"/>
  <rect class="cls-10" x="152.09" y="99.81" width="20.28" height="6.18"/>
  <rect class="cls-10" x="182.6" y="120.09" width="81.12" height="6.18"/>
  <rect class="cls-10" x="152.09" y="120.47" width="20.28" height="6.18"/>
  <rect class="cls-10" x="182.6" y="143.27" width="81.12" height="6.18"/>
  <rect class="cls-10" x="152.09" y="143.65" width="20.28" height="6.18"/>
  <rect class="cls-10" x="182.6" y="163.93" width="81.12" height="6.18"/>
  <path class="cls-10" d="M156.92,164.13h15.45v6.18h-20.28v-1.35c0-2.51,2.12-4.83,4.83-4.83Z"/>
  <path class="cls-13" d="M278.22,245.06h-144.86c-12.75,0-23.18-10.43-23.18-23.18V57.12c0-12.75,10.43-23.18,23.18-23.18h144.86c12.75,0,23.18,10.43,23.18,23.18v164.57c0,12.94-10.43,23.37-23.18,23.37ZM133.35,41.67c-8.5,0-15.45,6.95-15.45,15.45v164.57c0,8.5,6.95,15.45,15.45,15.45h144.86c8.5,0,15.45-6.95,15.45-15.45V57.12c0-8.5-6.95-15.45-15.45-15.45h-144.86Z"/>
  <rect class="cls-10" x="182.6" y="183.25" width="37.86" height="6.18"/>
  <path class="cls-10" d="M166.19,179.77c.58-.19,1.16-.19,1.93-.19s1.55.19,2.32.39l.19.39-4.44,6.76,4.83,7.34c-1.16.77-2.12,1.16-3.09,1.16-1.16,0-1.93-.39-2.7-1.55l-1.93-3.09-2.51,4.25c-.39.19-1.16.19-1.93.19s-1.74-.19-2.32-.39l-.19-.19,4.64-7.34-4.44-6.76c.97-.77,2.12-.97,3.28-.97.58,0,.97.19,1.35.39.39.19.77.58.97,1.16l1.55,2.51,2.51-4.06Z"/>
  <path class="cls-5" d="M236.49,33.55v-7.73h-57.95v7.73h-51.19v191.8h158.38V33.55h-49.25ZM278.02,217.82h-142.93V41.28h142.93v176.54Z"/>
  <path class="cls-9" d="M255.62,193.29l-2.9,13.52,13.91-.77,14.49-12.55,33.99-29.75-11.01-12.75-48.48,42.3Z"/>
  <path class="cls-10" d="M249.05,209.71l3.86-18.16,51.38-45,14.87,17-51.38,45-18.74,1.16Z"/>
  <path class="cls-7" d="M298.78,117.97c-.97,1.6-3.06,2.1-4.66,1.13l-39.52-24.11c-1.6-.97-2.1-3.06-1.13-4.66.97-1.6,3.06-2.1,4.66-1.13l39.52,24.11c1.6.97,2.1,3.06,1.13,4.66Z"/>
  <path class="cls-7" d="M259.26,93.87c-7.79,12.78-24.47,16.82-37.25,9.02-12.78-7.79-16.82-24.47-9.02-37.25,7.79-12.78,24.47-16.82,37.25-9.02h0c12.76,7.8,16.8,24.47,9.02,37.25ZM218.77,69.17c-5.85,9.58-2.82,22.09,6.77,27.94,9.58,5.85,22.09,2.82,27.94-6.77,5.85-9.58,2.82-22.09-6.77-27.94-9.59-5.83-22.08-2.8-27.94,6.77Z"/>
  <circle class="cls-11" cx="346.08" cy="70.23" r="13.87"/>
  <path class="cls-11" d="M345.19,147.97c-1.05-3.27.75-6.76,4.02-7.81.22-.07.45-.13.68-.18.27-.05.55-.09.82-.1l14.61-23.44-13.34-12.68c-2.13-2.03-2.22-5.4-.19-7.53,2.03-2.13,5.4-2.22,7.53-.19.02.02.05.04.07.07l18.42,18.16.04.05c1.17,1.78,1.03,4.12-.34,5.75l-20.47,24.21c.06.19.11.39.15.59.67,3.36-1.51,6.64-4.88,7.31-.23.05-.46.08-.7.1-.18.02-.35.02-.53.02-2.69-.01-5.07-1.75-5.9-4.31Z"/>
  <polygon class="cls-11" points="323.25 263.22 316.32 263.22 313.03 236.53 323.25 236.53 323.25 263.22"/>
  <path class="cls-2" d="M325.01,269.93h-22.32v-.28c0-4.8,3.89-8.69,8.69-8.69h13.63s0,8.97,0,8.97Z"/>
  <polygon class="cls-11" points="392.04 253.65 386.1 257.2 369.61 235.94 378.39 230.71 392.04 253.65"/>
  <path class="cls-2" d="M396.99,258.52l-19.18,11.42-.14-.24c-2.45-4.12-1.1-9.45,3.02-11.91,0,0,0,0,0,0h0s11.71-6.97,11.71-6.97l4.59,7.71Z"/>
  <path class="cls-2" d="M312.16,251.47c-4.64-54.6-7.4-105.32,9.56-126.01l.13-.16,28.53,11.41.05.1c.1.21,9.58,21.08,7.37,35.11l7.04,32.37,22.94,38.41c.72,1.21.33,2.77-.88,3.48-.09.05-.18.1-.28.14l-9.97,4.39c-1.16.51-2.52.08-3.19-1l-24.96-40.7-14.1-31.21c-.19-.43-.69-.62-1.12-.42-.27.12-.46.38-.49.68l-7.81,73.45c-.14,1.29-1.23,2.27-2.53,2.27h-7.75c-1.32,0-2.41-1.02-2.53-2.33Z"/>
  <path class="cls-1" d="M321.81,125.89l-.14-.07-.02-.15c-1.07-7.46.2-15.74,3.75-24.63,3.62-8.99,13.28-13.97,22.7-11.71h0c5.31,1.31,9.83,4.78,12.46,9.58,2.59,4.75,3.08,10.36,1.34,15.48-4.48,13.1-10.29,25.35-10.35,25.48l-.12.26-29.61-14.24Z"/>
  <path class="cls-11" d="M290.69,107.31c2.69-2.13,6.6-1.67,8.72,1.03.15.18.28.38.4.58.14.24.27.48.38.74l27.07,5.47,7.21-16.94c1.15-2.71,4.28-3.97,6.99-2.81,2.71,1.15,3.97,4.28,2.81,6.99-.01.03-.03.06-.04.09l-10.56,23.62-.03.05c-1.26,1.72-3.5,2.41-5.5,1.7l-29.84-10.69c-.16.13-.33.24-.5.35-2.92,1.81-6.75.91-8.55-2.01-.12-.2-.24-.41-.34-.62-.08-.16-.14-.32-.21-.48-.93-2.53-.14-5.37,1.97-7.04Z"/>
  <path class="cls-2" d="M396.18,85.08c-1.34-2.37-3.28-4.53-5.85-5.41-3.32-1.13-6.92.07-10.34.88-2.63.62-5.38,1-8.03.48-2.65-.52-5.21-2.07-6.42-4.49-1.78-3.56-.28-7.8-.39-11.78-.2-7.9-6.77-14.13-14.67-13.93-1.13.03-2.26.19-3.36.49-3.27-.94-6.23-1.03-8.26,1.48-5.3,0-9.6,4.3-9.6,9.6h9.18c-.44,2.34.06,4.76,1.39,6.74,1.62,2.38,4.44,4.1,4.98,6.93.53,2.74-1.34,5.34-3.29,7.33-1.95,1.99-4.22,3.97-4.83,6.69-.37,2.07.05,4.2,1.19,5.96,1.13,1.74,2.54,3.3,4.17,4.59,7.33,6.28,16.04,10.74,25.43,13.01,6.61,1.59,13.84,2,19.97-.92,9.89-4.72,14.08-16.55,9.36-26.44-.2-.41-.4-.81-.63-1.21Z"/>
  <circle class="cls-12" cx="124.28" cy="40.55" r="32.05"/>
  <circle class="cls-13" cx="124.28" cy="40.55" r="26.71"/>
  <path class="cls-3" d="M122.01,50.21s-.1,0-.14,0c-.85-.04-1.65-.45-2.17-1.13l-4.1-5.27c-.99-1.28-.76-3.12.51-4.12l.15-.11c1.28-.99,3.12-.76,4.12.51.89,1.14,2.53,1.34,3.66.46.1-.08.2-.17.29-.27l8.32-8.78c1.11-1.18,2.97-1.23,4.15-.11,0,0,0,0,0,0l.14.13c1.18,1.11,1.23,2.97.11,4.15l-12.91,13.63c-.55.59-1.32.92-2.13.92Z"/>
</svg>