<?xml version="1.0" encoding="UTF-8"?>
<svg id="Capa_2" data-name="Capa 2" xmlns="http://www.w3.org/2000/svg" viewBox="0 0 68.78 65.05">
  <defs>
    <style>
      .cls-1 {
        fill: #d8eaef;
        stroke: #43a5cc;
        stroke-miterlimit: 10;
      }
    </style>
  </defs>
  <g id="Capa_1-2" data-name="Capa 1">
    <g id="comp-chis">
      <path id="Trazado_201" data-name="Trazado 201" class="cls-1" d="M.67,36.57l.4-.79.23.11.46.34.46.68.23.17.57.23.28.17.12.22-2.73-1.12h-.01ZM48.8,14.32h-.11l-.06.28.4.22.57.11.28.11.11.45.34.06.51-.06h.51l.17.17.17.34.11.34v.28l.06.11.4.11.17.06.06.17.11.28.06.22.17.22.63.74.17.06.46-.06.17.06.11.11.06.34.11.17.63.73.11.22.06.4.23.17.68.28.11.06.23.22.06.06.17-.06v-.17l-.06-.17v-.11h.34l.23.06.06.17-.28.28.34.17.57.56.28.17,1.25.4h.23l.17-.17.23.17v.11l-.06.22.28.22.63.34.23.17,1.25,1.75.23.68-.23.45v.11l.17-.06h.06l.06-.06.06-.11.23.11-.06.28-.11.28.11.34-.17.28.17.06h.28l.17.17v.17l-.11.11-.17.17-.06.17.23-.06h.28l.23.06.11.06.12-.06.45-.11h.17l.06.4.11.17.46-.22.17.06.17.11.11.11.12.22-.06.11.06.11.57.11.17.06.17.11h.28l.17-.06h.11v.51l.06.11.23.34-.28-.06-.28-.06-.17.11v.28h.11v-.17h.11l.17.28-.11.28-.28.23-.34.11-.11.06.17.17.28.11.11-.06v.17l-.11.06-.17-.06-.12-.06v.11h-.11l.06.11.11.17.06.11h-.23l-.06-.06-.06-.06-.23.22.06.17.17.11.23.11-.17.11-.23.17-.17.23.12.4.51.28.12.17-.4.17v.11l.23.23-.45.34.12.34h.11l.06-.06.17-.06-.06.11-.11.28-.06.11-.34.11-.34.06h-22.15l-.28.17-.23.28-1.59,2.77-1.25,2.15-1.42,2.43-1.42,2.43-2.45,4.18-.11.34v.34l.17.34,2.33,2.99-.4.79-.17.23-.23.11h-.23l-.23.11-.23.17-.06.62.06,1.13-.17.56-.4.45-.06.22v.51l.17.45.06.17-.06.28v.11l.34.9v.34l-.06.28-.4.84-.4,1.07-.28.4-.4.06-.06-.06-.97-1.18-1.36-1.3-3.25-2.39-4.73-4.88v-1.04s-.27-.51-.27-.51v-.34l.28.17.8.22.17.17v.34l.11.34.23.28.28.11-.23-.4-.11-.73-.23-.34-.28-.17-.34-.11-.4-.11-.28.06-.06-.28-.17-.06-.11.11.23.22h-.28l-.07,1.41-1.85-1.93-.65-.55-1.11-1.01-1.66-1.75-1.58-.83-.37-.64-.74-.74-1.21-.92-1.76-1.56-1.02-1.11-2.96-2.21-4.91-2.85.5-.51.23-.11.45.06.23-.06.12.23h.17l.23-.11.23-.22-.4-.45-.17-.4-.23-.34-.45-.22-2.16-.45-.57-.34-.17-.11.11-.23.34-.45.11-.22.11-.34.06-.34.06-.4.06-.34-.06-.56-.23-.62-.28-.56-.23-.51-.28-.73-.17-.34-.17-.28-.17-.74.4-.79.57-.74.4-.62.17-.4.11-.34v-.79l-.06-.4-.11-.51v-.51l.06-.34.23-.28.34-.22.4-.17.28-.17,1.08-.68.06-.22v-1.98l.23-.34.46.11v-.56l.06-1.02v-.51l-.11-.51.23-.06.23-.11.4-.34,2.62-1.81.4-.22.34-.22.34-.34.23-.34.28-.73.51-1.07.46-1.07.23-.74.11-.11.11-.23.06-.11.34-.17.17-.17h.11l.06-.34v-.11l.22-.22.23-.17.28-.17.23-.22.11-.28.12-.34.06-.34.11-.34.28-1.07.34-1.13.34-1.13.4-1.07.06-.4.22-.06.12-.11.23-.28.17-.11.28.06.46.11.63.11.17.11.34.22.45.22.4.51.57.4.63.11.4-.4.34.06.23-.4.06.45.06.4v.45l.06.34v.68l-.11.28-.17.56-.11.28v.79l.34,1.47v.79l.06.45.11.4.28.17h.45l.57.11.28.4.23.51.34.56.17.28.23.28.23.28.23.22.51.28.57.22.57-.06.51-.34.28-.22,1.08-1.02.68-.68,1.59-1.36.57-.62.34-.28.4-.11.63-.17.17-.34-.06-.45.17-.56.45-.34.63-.17.63-.17.57-.11.46-.17.45-.22.4-.28.34-.28.57.11.63-.06.4-.28-.34-.56.45-.51.51-.51.51-.34.4-.11h.11l.28.17-.06.62.23.28.11-.22.06-.17.11-.17.23-.11h.23l.28.06.45.22.34-.28.4.06.34.28.28.45v.62l.06.17.11.56-.11.17-.17.34-.06.34.23.17h.4l.34-.06.4.06.34.11.34.51.23.68.17.68.11.62v.73l.11.28.28.22.4.17.28.11.22.11.34.11.4.11.34.11.11.11.17.11.17.11v.28l-.12.56.12.17.23.17.23.06.23.06.4-.06.17.11.11.17.45.73.06.06-.06.28h-.45l-.23.11-.12.17-.06.28-.06.28.11.28.09.04h-.07Z"/>
    </g>
  </g>
</svg>