<?xml version="1.0" encoding="UTF-8"?>
<svg id="Capa_2" data-name="Capa 2" xmlns="http://www.w3.org/2000/svg" viewBox="0 0 64.94 77.9">
  <defs>
    <style>
      .cls-1 {
        fill: #d8eaef;
        stroke: #43a5cc;
        stroke-miterlimit: 10;
      }
    </style>
  </defs>
  <g id="Capa_1-2" data-name="Capa 1">
    <g id="comp-bc">
      <path id="Trazado_225" data-name="Trazado 225" class="cls-1" d="M45.67,77.23h-.36l-.13-.22-.14.04-.09-.09.04-.09.18-.13.18.13.22.22.09.13h0ZM24.22,72.2l.04.09c.1-.04.21-.05.31-.04l.04.09h-.18l-.04.13-.18.04c-.07-.06-.14-.14-.18-.22l.04-.09h.14ZM29.99,75.72c-.17.31.05.73,0,1.07-1.09.28-1.26-1.78-2.33-.67,1.24-4.35,3.14-6.61,2.33-.4M60.31,63l-.09.09v.04h-.04l-.04-.04h.04l.04-.04.04-.09v-.09l.04.04.04.04-.04.04h0ZM53.77,52.68c.97.23,1.63,1.81,2.11,2.45-1.9,2.4,3.42.72,2.42,2.36.33.94-.41,2.74,1.07,2.93-.18.34-.25.73-.18,1.11-1.06-.66-1.96-1.54-2.64-2.58-1.29-.33-1.58-2.1-2.73-2.27-.92-1.5-1.53-2.34-1.07-4.09l.18-.04c-.04.3.51.09.49-.09h.18v.18l.18.04h0ZM39.04,43.7l.09.04v.09h-.04l-.04-.09-.09-.04h-.04l-.04-.04.18.04ZM17.01,37.34h-.18l-.09-.04v-.09l.09-.09h.09l.09.13v.09h0ZM.97,5.99h-.04l-.04-.18-.04-.13-.05-.05-.04-.18.09.04.04.09.04.13.04.13v.14h0ZM34.24,14.13c0,.26,2.1.5,2.03,1.01.25,1.4,0,.64.51,2.01-1.52,1.01-4.56,8.57-.47,12.58,1.3,1.02.37,3.6.92,5.11.89,2.41.05,4.42.37,6.28.21,1.2,1.28,2.23,1.35,3.66.04.71,1.99,2.73,2.29,3,1.18,1.06,1.33,1.02,1.47,1.08,1.27.47,2.37,1.96,3.54,2.89,1.83,1.64,3.91,2.5,4.93,4.94.6,1.43,1.28,1.82,1.65,3.11.19.68.64.73.23,1.23.11.36-.14.25.2.66.26.31.51.17.77.47.65.74,1.03-.14,1.3.09.27-.03.14.47.27.53.44.31.46.67,1.19,1.24.64.16,2.47,2.41,2.3,4-.05.46,2.07,1.35,2.96,2.25.58.33.85,1.48,1.02,2.31,0,.54.1,1.07.27,1.58.37,1.18.29,2.22.75,3.07-5.89,0-15.11.03-21.01.03.89-.8.77-1.22,1.23-2.52.33-.96.13-1.27.22-2.22.31-1.71.66-2.44-.04-3.43-.53-.56-.75-1.12-1.54-1.78-1.72-1.43-2.22-2.65-3.7-3.96-.5-.44-1.66-1.74-1.3-1.46-1.92-1.53-3.88-4.71-5.03-5.33-1.7-.71-1.26-.85-3.17-1.78-2.98-1.83-4.41-2.46-6.7-4.64-1.34-1.27-1.89-2.51-2.38-4.38-.9-2.71.2-4.6-.86-5.71-.66-.49-1.06-.53-1.89-.78-.9-.47-.88-.8-.84-2.12.4-1.2.33-2.51-.2-3.65-.56-.98-1.26-1.87-2.07-2.65-.48-.31-1.96-1.22-1.81-2.05.47-2.31-.33-3.65-2.07-5.63-.55-.57-1.56-1.36-2-2.09-.62-.89-.77-1.24-.75-1.86-.18-.62.56-1.58.31-2.15-.05-.52-.15-1.03-.29-1.53-.16-.71-.75-1.07-1.01-1.58-1.21-1.42-1.57-2.46-2.33-3.54-1.16-1.68-3.45-4.18-3.28-6.76C11.59,2.34,25.83.97,36.12.53c-.15.98.15,3.53-.15,3.62-2.32.7-3.6,3.35-3.25,3.94.73.34.87,1.17,1.02,2.01.2,1.16.29,3.13.51,4.03"/>
    </g>
  </g>
</svg>