<?xml version="1.0" encoding="UTF-8"?>
<svg id="Capa_2" data-name="Capa 2" xmlns="http://www.w3.org/2000/svg" viewBox="0 0 60.14 50.83">
  <defs>
    <style>
      .cls-1 {
        fill: #d8eaef;
        stroke: #43a5cc;
        stroke-miterlimit: 10;
      }
    </style>
  </defs>
  <g id="Capa_1-2" data-name="Capa 1">
    <g id="comp-ags">
      <path id="Trazado_197" data-name="Trazado 197" class="cls-1" d="M59.45,28.6l-.36.73-.18.18-1.11,1.66-.93,1.29-1.29.91-1.86.73-1.29.55-.93,1.11-.93,1.11-1.48.36-1.48.93-.56,1.48-.18,1.66-.36,1.66-.75,1.29-1.11.55-1.29.36-1.29.55-1.29,1.11-1.11,1.11-1.29,1.11-1.29.93-1.68.36h-1.68l-1.48-.18-1.86-.18-1.68-.18-3.72-.73-1.86-.18-2.79-.73-2.22-1.29-2.04-1.66-2.4-1.11-1.86-.36-2.04.36-2.04.73-1.68.73-2.04-1.29-1.68-1.11-1.29-1.66-.56-2.39v-2.53l.36-1.29.36-1.29.75-1.11.75-1.11.75-1.11.93-1.11.75-1.48.93-1.66.93-1.48,1.11-1.29,1.11-1.29,1.29-1.29,1.11-1.48.75-1.48.18-1.66-.56-1.11-.93-.91-.18-.93,1.29-2.02,2.04-.93,2.22-.18,2.04.18h3.15l.93-.55.36-.73.36-1.48.55-.55.36-.18h2.59l.56-.55.56-.73.55-.55.75-.36h1.11l.75-.73.75-1.29.55-1.11,1.11-1.11.93.55.75,1.48.56,1.29.55,1.29.75,1.48,1.11.93,1.11-.36.36-.36.36-.18.36-.18.36-.18.75.73.56,1.84.75.73,1.11-.18.75.55.55.73.75.73,1.11.55h2.42l1.11.55.56,1.48.18,2.2-.18,2.39-.18,1.84.75,1.66,1.29.73,1.68.73,1.48.91.93.91.93.93.75,1.11.78,1.11-.04.04Z"/>
    </g>
  </g>
</svg>